<svg xmlns="http://www.w3.org/2000/svg" xmlns:xlink="http://www.w3.org/1999/xlink" width="28" height="29" viewBox="0 0 28 29">
  <defs>
    <polygon id="a" points="27.917 28.548 27.917 0 .001 0 .001 28.548"/>
  </defs>
  <g fill="none" fill-rule="evenodd">
    <mask id="b" fill="white">
      <use xlink:href="#a"/>
    </mask>
    <path fill="#AE1017" d="M13.9456,23.6506 L10.2316,23.6506 L7.9966,28.4716 L11.7046,28.4716 L13.9456,23.6506 Z M18.4956,23.5276 L14.7876,23.5276 L12.6526,28.3696 L16.3616,28.3696 L18.4956,23.5276 Z M1.9076,6.6376 L1.9076,25.0606 L0.0916,25.0606 L0.0916,28.5476 L6.6266,28.5476 L8.3246,25.0606 L5.9036,25.0606 L5.9036,6.6376 L6.6266,6.6376 L8.3246,3.1706 L5.9036,3.1706 L5.9036,0.8976 L1.9076,0.8976 L1.9076,3.1706 L0.0006,3.1706 L0.0006,6.6376 L1.9076,6.6376 Z M13.6746,8.6226 L22.7526,8.6226 L22.7526,6.9396 L13.6746,6.9396 L13.6746,8.6226 Z M9.4226,4.8526 L27.0196,4.8526 L27.0196,8.5046 L23.5016,10.7406 L9.4226,10.7406 L9.4226,4.8526 Z M15.4946,1.5446 C15.6326,1.3346 15.8746,1.0206 16.2226,0.6056 C16.5666,0.1906 17.2996,-0.0094 18.4236,0.0006 C18.9926,0.0106 19.5056,0.1186 19.9566,0.3236 C20.4026,0.5286 20.6906,0.7286 20.8136,0.9286 L21.2176,1.5446 L27.9176,1.5446 L26.8086,3.8466 L8.5956,3.8466 L8.5956,1.5446 L15.4946,1.5446 Z M8.7756,15.6546 L8.7756,11.7356 L27.3626,11.7356 L27.3626,14.6486 L23.1416,15.6546 L23.1416,13.9566 L13.0576,13.9566 L13.0576,14.6486 L8.7756,15.6546 Z M13.3556,22.2656 L12.6526,23.1226 L7.8876,23.1226 L11.6736,18.4806 L9.1656,18.4806 L9.1656,15.7936 L27.3626,15.7936 L26.2806,18.4806 L16.5466,18.4806 L15.4326,19.8186 L22.8396,19.8186 L22.8396,21.9526 L23.9676,19.4856 L27.6196,19.4856 L25.8906,22.9116 L27.8766,27.5736 L24.0546,27.5736 L22.8396,24.5846 L22.8396,25.9946 L19.5926,28.4716 L17.7156,28.4716 L17.7156,25.6916 L18.8896,25.6916 L18.8896,22.2656 L13.3556,22.2656 Z" mask="url(#b)"/>
  </g>
</svg>
