<svg xmlns="http://www.w3.org/2000/svg" xmlns:xlink="http://www.w3.org/1999/xlink" width="56" height="29" viewBox="0 0 56 29">
  <defs>
    <polygon id="a" points="55.477 28.266 0 28.266 0 0 55.477 0"/>
  </defs>
  <g fill="none" fill-rule="evenodd">
    <mask id="b" fill="white">
      <use xlink:href="#a"/>
    </mask>
    <path fill="#AE1017" d="M45.3069,1.7131 C44.7929,1.7131 44.3009,1.8361 43.8239,2.0821 C43.3519,2.3281 42.9779,2.6671 42.7059,3.0981 C42.3769,3.6061 42.2129,4.1441 42.2189,4.7131 C42.2239,5.2771 42.3629,5.7961 42.6289,6.2571 C42.9009,6.7241 43.2749,7.0991 43.7519,7.3701 C44.2239,7.6481 44.7429,7.7801 45.3069,7.7711 C45.8339,7.7711 46.3419,7.6371 46.8249,7.3651 C47.3069,7.0931 47.6809,6.7291 47.9479,6.2681 C48.2199,5.8061 48.3639,5.2981 48.3689,4.7491 C48.3689,4.2111 48.2299,3.6981 47.9479,3.2161 C47.6709,2.7341 47.2819,2.3691 46.7839,2.1131 C46.2909,1.8571 45.7989,1.7241 45.3069,1.7131 L45.3069,1.7131 Z M50.6709,0.3491 L55.4769,0.3491 L55.4769,25.8451 L50.6709,27.9791 L50.6709,0.3491 Z M36.2119,0.3031 L40.9469,0.3031 L40.9779,23.9681 L49.8609,23.9981 L48.0249,27.7281 L36.1979,27.7281 L36.2119,0.3031 Z M29.8729,0.5131 L34.6379,0.5131 L34.6379,25.9531 L29.8729,28.0251 L29.8729,0.5131 Z M19.8489,4.8111 L22.3929,0.1531 L27.0199,0.1531 L24.5989,4.8111 L19.8489,4.8111 Z M17.7209,4.8111 L13.1049,4.8111 L10.9869,0.1531 L15.4329,0.1531 L17.7209,4.8111 Z M18.2589,17.7161 L13.4219,17.7161 L9.2879,27.9381 L14.3199,27.9381 L18.2589,17.7161 Z M23.8039,17.5981 L23.8039,24.5831 L27.3779,24.5831 L26.1019,27.8451 L19.2489,27.8451 L19.2489,17.5981 L23.8039,17.5981 Z M15.1209,13.4331 L22.4809,13.4331 L22.4809,9.2431 L15.1209,9.2431 L15.1209,13.4331 Z M23.8039,16.7261 L27.0499,13.4331 L27.0499,5.8621 L10.5809,5.8621 L10.5809,16.7261 L23.8039,16.7261 Z M4.9289,0.0001 L9.0779,0.0001 L9.0779,4.8671 L10.5809,4.8671 L9.5449,8.4161 L9.0779,8.4161 L9.0779,26.4451 L4.9289,28.2661 L4.9289,8.4161 L4.0879,8.4161 L4.0879,24.7061 L-0.0001,26.5221 L-0.0001,0.7231 L4.0879,0.7231 L4.0879,4.8671 L4.9289,4.8671 L4.9289,0.0001 Z" mask="url(#b)"/>
  </g>
</svg>
