<svg xmlns="http://www.w3.org/2000/svg" width="116" height="60" viewBox="0 0 116 60">
  <path fill="#AE0E16" fill-rule="evenodd" d="M2.8,6.8 L1.13686838e-13,6.8 L4.1,0.2 L9.1,0.2 L8.8,0.7 L8.5,1.3 L28.2,1.3 L26.8,4.3 L8,4.3 L8,7.3 L28,7.3 L26.6,10.3 L8,10.3 L8,12.9 L27.9,12.9 L26.5,16 L8,16 L8,16.5 L2.9,18 L2.9,6.8 L2.8,6.8 Z M1.1,18.6 L5.6,18.6 L5.6,26.3 L1.1,28.4 L1.1,18.6 L1.1,18.6 Z M6.9,18.6 L11.6,18.6 L11.6,24.9 L22.2,24.9 L20.8,27.9 L6.9,27.9 L6.9,18.6 L6.9,18.6 Z M23,18.5 L27.5,18.5 L27.5,26.1 L23,28.2 L23,18.5 L23,18.5 Z M16.6,17.6 C16.1,17.6 15.6,17.7 15.1,18 C14.6,18.3 14.2,18.6 13.9,19.1 C13.6,19.6 13.5,20 13.5,20.5 C13.5,21 13.6,21.5 13.9,22 C14.2,22.5 14.6,22.8 15,23.1 C15.5,23.4 16,23.5 16.5,23.5 C17,23.5 17.5,23.4 18,23.1 C18.5,22.8 18.8,22.5 19.1,22 C19.4,21.6 19.5,21.1 19.5,20.6 C19.5,20.1 19.4,19.6 19.1,19.1 C18.8,18.6 18.4,18.3 17.9,18 C17.6,17.7 17.1,17.6 16.6,17.6 L16.6,17.6 Z M29.8,13.9 L39.6,0.9 L45.4,0.9 L35.4,13.9 L29.8,13.9 L29.8,13.9 Z M51.6,24.1 L36.9,24.1 L56.2,3.4 L50.1,3.4 L30.2,24 L30.2,28 L50.7,28 L51.8,25.1 L52.5,28 L57.6,28 L53.9,15.4 L49.1,15.4 L51.6,24.1 L51.6,24.1 Z M76.8,5 L75.6,7.5 L70.7,7.5 L73.9,0 L78.7,0 L77.9,1.7 L86.8,1.7 L85.4,5 L76.8,5 L76.8,5 Z M71.7,8.3 L86.5,8.3 L86.5,12.5 L77.5,24.4 L87.1,24.4 L85.5,27.9 L71.7,27.9 L71.7,23.9 L80.9,11.8 L71.7,11.8 L71.7,8.3 L71.7,8.3 Z M59,0.9 L70.3,0.9 L70.3,23.7 L66,27.8 L59,27.8 L59,0.9 L59,0.9 Z M65.8,4.4 L63.5,4.4 L63.5,24.1 L65.8,24.1 L65.8,4.4 L65.8,4.4 Z M16.1,31.7 L28.1,31.7 L28.1,41.5 L26.4,43.2 L28,45.2 L28,52.9 L24.9,56.4 L20.2,56.4 L20.2,58.1 L16,59.9 L16,31.7 L16.1,31.7 Z M20.3,52.8 L23.8,52.8 L23.8,45 L20.3,45 L20.3,52.8 L20.3,52.8 Z M23.8,35.1 L20.3,35.1 L20.3,41.5 L23.8,41.5 L23.8,35.1 L23.8,35.1 Z M6.7,42.4 L6,44.1 L15.2,44.1 L15.2,55.3 L11.5,59 L1.6,59 L1.6,47.7 L0,47.7 L2.3,42.4 L0.7,42.4 L0.7,39 L5.5,39 L5.5,35.9 L0.9,35.9 L0.9,32.5 L5.5,32.5 L5.5,31.4 L9.7,31.4 L9.7,32.5 L15.5,32.5 L14.1,35.9 L9.7,35.9 L9.7,39 L10.1,39 L10.9,36.8 L14.9,36.8 L14.1,39 L15.7,39 L14.3,42.4 L6.7,42.4 L6.7,42.4 Z M11.2,47.2 L5.6,47.2 L5.6,49.9 L10.9,49.9 L9.7,52.9 L5.5,52.9 L5.5,55.8 L11.1,55.8 L11.1,47.2 L11.2,47.2 Z M57.2,31.7 L55.4,35.4 L41.9,35.4 L34.5,57.5 L29.5,57.5 L36.8,35.4 L30.1,35.4 L30.1,31.7 L57.2,31.7 L57.2,31.7 Z M41.1,38.3 L41.1,60 L45.9,57.8 L45.9,38.3 L41.1,38.3 L41.1,38.3 Z M48.2,37.8 L52.5,57.5 L57.3,57.5 L52.9,37.8 L48.2,37.8 L48.2,37.8 Z M60.5,31.4 L60.5,31.4 L65.5,31.4 L65.5,43.7 L86.2,43.7 L84.4,47.4 L65.5,47.4 L65.5,55.5 L70.1,55.5 L68.4,59.3 L60.5,59.3 L60.5,47.4 L59,47.4 L59,43.7 L60.5,43.7 L60.5,31.4 L60.5,31.4 L60.5,31.4 Z M85.9,31.5 L78.8,31.5 L67.8,40.7 L75.6,40.7 L85.9,31.5 L85.9,31.5 Z M86.2,59.1 L73.6,48.8 L66.5,48.8 L79.1,59.1 L86.2,59.1 L86.2,59.1 Z M101,32 L104.7,32 L105.5,41.4 L101.7,41.4 L101,32 L101,32 Z M101,46.5 L106,46.5 L106,51.8 L100.9,51.8 L100.9,55.2 L106,55.2 L106,59.5 L110.3,57.8 L110.3,55.2 L114.5,55.2 L116,51.8 L110.3,51.8 L110.3,46.5 L114.2,46.5 L115.8,43.1 L110.3,43.1 L110.3,31.3 L106,31.3 L106,43.1 L101,43.1 L101,46.5 L101,46.5 Z M111.6,32.3 L115.4,32.3 L114.6,41.4 L110.8,41.4 L111.6,32.3 L111.6,32.3 Z M100.2,31.7 L100.2,55.6 L96.8,59.2 L94.2,59.2 L94.2,56 L96.1,56 L96.1,50.5 L93,50.5 L93,57.9 L88.9,59.6 L88.9,31.6 L100.2,31.6 L100.2,31.7 Z M93.1,39.9 L96.2,39.9 L96.2,35.1 L93.1,35.1 L93.1,39.9 L93.1,39.9 Z M93.1,47.3 L96.2,47.3 L96.2,43 L93.1,43 L93.1,47.3 Z"/>
</svg>
