<svg xmlns="http://www.w3.org/2000/svg" xmlns:xlink="http://www.w3.org/1999/xlink" width="29" height="28" viewBox="0 0 29 28">
  <defs>
    <polygon id="a" points="0 0 0 27.901 28.21 27.901 28.21 0"/>
  </defs>
  <g fill="none" fill-rule="evenodd">
    <mask id="b" fill="white">
      <use xlink:href="#a"/>
    </mask>
    <path fill="#AE1017" d="M26.2967,0.2102 C26.6137,0.2202 26.9267,0.3022 27.2347,0.4662 C27.5427,0.6262 27.7787,0.8562 27.9477,1.1642 C28.1167,1.4672 28.2047,1.7952 28.2097,2.1392 C28.2147,2.4872 28.1327,2.8052 27.9637,3.0922 C27.7947,3.3952 27.5587,3.6312 27.2507,3.8112 C26.9427,3.9852 26.6247,4.0722 26.2967,4.0722 C25.9477,4.0832 25.6197,3.9952 25.3167,3.8162 C25.0197,3.6362 24.7837,3.3952 24.6137,3.0922 C24.4447,2.7952 24.3627,2.4722 24.3727,2.1332 C24.3727,1.8002 24.5057,1.4002 24.7737,0.9232 C25.0347,0.4462 25.5427,0.2102 26.2967,0.2102 L26.2967,0.2102 Z M26.0547,21.6242 L27.3477,27.7372 L24.2087,27.7372 L22.8707,21.6242 L26.0547,21.6242 Z M22.0597,21.6242 L18.9617,21.6242 L20.3007,27.7372 L23.4547,27.7372 L22.0597,21.6242 Z M18.1507,21.6082 L19.5207,27.7372 L16.4387,27.7372 L15.1307,21.6242 L18.1507,21.6082 Z M14.9507,21.6652 L13.8837,27.9012 L10.7457,27.9012 L11.9457,21.6652 L14.9507,21.6652 Z M22.7777,9.6012 L24.4647,20.0442 L27.3787,20.0442 L25.4857,8.9392 L22.8707,8.9392 L22.9727,8.0832 L26.6397,8.0832 L27.4097,5.0782 L23.3527,5.0782 L23.9217,0.1032 L20.9317,0.1032 L20.3927,5.0782 L19.1007,5.0782 L19.1007,8.0832 L20.1207,8.0832 L18.5417,20.1622 L21.5007,20.1622 L22.7777,9.6012 Z M14.8177,0.9742 L18.7207,0.9592 L18.7357,16.9922 L15.7457,20.0902 L11.1047,20.0902 L11.1047,16.9512 L15.7457,16.9512 L15.7457,14.9052 L14.3667,14.9052 L14.3667,12.0322 L15.7457,12.0322 L15.7457,9.8732 L14.4687,9.8732 L14.4687,6.9852 L15.7457,6.9852 L15.7457,4.0722 L14.4377,4.0722 L13.6737,13.6122 L10.7607,13.6122 L11.9297,0.0002 L14.9207,0.0152 L14.8177,0.9742 Z M0.3747,1.2922 L0.4047,14.8022 L3.2317,13.5822 L3.2467,1.2922 L0.3747,1.2922 Z M7.8417,1.3492 L7.8577,14.3352 L10.6687,13.1152 L10.7137,1.3492 L7.8417,1.3492 Z M3.9237,0.1032 L7.1807,0.1032 L7.1807,14.5922 L10.5347,27.7682 L7.0467,27.7682 L5.4677,21.0342 L3.5897,27.7682 L-0.0003,27.7682 L3.9237,14.5922 L3.9237,0.1032 Z" mask="url(#b)"/>
  </g>
</svg>
