<svg xmlns="http://www.w3.org/2000/svg" width="116" height="30" viewBox="0 0 116 30">
  <path fill="#AE1017" fill-rule="evenodd" d="M105.227,2.00511392 L115.88,2.00511392 L114.244,5.48711392 L95.718,5.48711392 L95.718,8.04211392 L114.259,8.04211392 L114.259,24.5721139 L110.879,28.3321139 L99.549,28.3321139 L99.549,24.7361139 L109.223,24.7211139 L109.238,11.5451139 L95.759,11.5451139 L95.759,26.3781139 L90.712,28.7371139 L90.727,5.48711392 L88.235,5.48711392 L88.235,2.00511392 L98.631,2.00511392 C98.852,1.60511392 99.165,1.16911392 99.565,0.697113916 C99.965,0.225113916 100.663,-0.00588608406 101.653,0.000113915939 C102.642,0.00511391594 103.375,0.148113916 103.853,0.435113916 C104.33,0.717113916 104.664,1.03011392 104.853,1.37411392 L105.227,2.00511392 Z M74.846,11.6071139 L69.933,11.6071139 L66.476,22.6181139 L71.507,22.6181139 L74.846,11.6071139 Z M62.434,0.394113916 C62.916,0.404113916 63.388,0.533113916 63.86,0.779113916 C64.331,1.02511392 64.702,1.38411392 64.968,1.85111392 C65.23,2.32311392 65.368,2.82011392 65.373,3.34911392 C65.378,3.87211392 65.249,4.36411392 64.989,4.81611392 C64.727,5.26211392 64.368,5.62111392 63.906,5.88211392 C63.445,6.13911392 62.953,6.27211392 62.434,6.27211392 C61.901,6.28211392 61.414,6.15411392 60.962,5.89311392 C60.511,5.63611392 60.152,5.27211392 59.88,4.81611392 C59.608,4.35411392 59.48,3.85611392 59.49,3.32811392 C59.49,2.82611392 59.628,2.33811392 59.901,1.86111392 C60.177,1.38411392 60.541,1.02011392 60.998,0.769113916 C61.455,0.523113916 61.931,0.394113916 62.434,0.394113916 L62.434,0.394113916 Z M65.035,9.17011392 L58.423,9.17011392 L58.423,12.5191139 L60.121,12.5191139 L60.121,28.7941139 L64.88,26.6041139 L67.045,28.2861139 L84.987,28.2861139 L86.55,24.9161139 L69.271,24.9061139 L65.035,21.8851139 L65.035,9.17011392 Z M66.579,4.19511392 L66.579,0.922113916 L86.52,0.922113916 L85.063,4.19511392 L66.579,4.19511392 Z M82.104,10.2831139 L82.104,19.2381139 L86.566,19.2381139 L84.971,22.6181139 L77.324,22.6181139 L77.324,10.2831139 L66.43,10.2831139 L66.43,7.02111392 L86.643,7.02111392 L85.156,10.2831139 L82.104,10.2831139 Z M29.498,27.2191139 L30.623,12.2061139 L34.428,12.2061139 L33.402,27.2191139 L29.498,27.2191139 Z M39.578,10.6571139 L43.845,10.6571139 L45.363,7.32311392 L39.578,7.32311392 L39.578,4.72311392 L44.071,4.15411392 L44.973,0.666113916 L29.812,2.03611392 L29.812,5.59511392 L35.34,5.08211392 L35.34,7.32311392 L29.858,7.32311392 L29.858,10.6571139 L35.34,10.6571139 L35.34,29.1581139 L39.578,27.7271139 L39.578,10.6571139 Z M44.101,12.2061139 L45.066,27.2191139 L41.336,27.2191139 L40.418,12.2061139 L44.101,12.2061139 Z M52.666,4.28711392 L50.113,4.28711392 L50.113,24.3321139 L52.682,24.3161139 L52.666,4.28711392 Z M56.903,0.799113916 L56.903,23.8541139 L53.179,27.8811139 L45.953,27.8811139 L45.953,0.799113916 L56.903,0.799113916 Z M14.335,20.4131139 C14.808,20.4131139 15.269,20.5311139 15.72,20.7721139 C16.166,21.0131139 16.521,21.3611139 16.777,21.8231139 C17.034,22.2851139 17.162,22.7671139 17.167,23.2641139 C17.172,23.7671139 17.049,24.2341139 16.803,24.6651139 C16.541,25.1061139 16.193,25.4491139 15.756,25.7061139 C15.321,25.9631139 14.848,26.0861139 14.335,26.0751139 C13.823,26.0751139 13.351,25.9521139 12.915,25.7011139 C12.479,25.4491139 12.135,25.1061139 11.879,24.6701139 C11.623,24.2341139 11.499,23.7621139 11.509,23.2491139 C11.509,22.7621139 11.638,22.2851139 11.894,21.8231139 C12.151,21.3611139 12.499,21.0131139 12.946,20.7771139 C13.392,20.5411139 13.854,20.4231139 14.335,20.4131139 L14.335,20.4131139 Z M16.321,9.33411392 L9.361,9.33411392 L9.361,12.6271139 L27.036,12.6271139 L28.564,9.33411392 L21.096,9.33411392 L21.096,5.44611392 L26.958,5.44611392 L28.476,2.28711392 L21.096,2.28711392 L21.096,0.574113916 L16.321,0.574113916 L16.321,2.28711392 L9.361,2.28711392 L9.361,5.44611392 L16.321,5.44611392 L16.321,9.33411392 Z M21.686,15.4681139 L9.135,15.4681139 L9.135,18.7721139 L21.686,18.7721139 L21.686,24.8751139 L18.619,24.8751139 L18.619,28.2391139 L23.368,28.2391139 L26.46,24.7111139 L26.46,18.7721139 L27.168,18.7721139 L28.625,15.4681139 L26.46,15.4681139 L26.46,13.4681139 L21.686,13.4681139 L21.686,15.4681139 Z M4.164,0.169113916 C4.617,0.169113916 5.063,0.292113916 5.508,0.533113916 C5.955,0.774113916 6.309,1.11211392 6.565,1.55311392 C6.827,1.99411392 6.96,2.46611392 6.96,2.96411392 C6.95,3.46611392 6.822,3.93311392 6.576,4.36911392 C6.33,4.80511392 5.991,5.14911392 5.555,5.40011392 C5.119,5.65111392 4.652,5.77011392 4.164,5.75911392 C3.663,5.75911392 3.196,5.63611392 2.759,5.38511392 C2.324,5.13311392 1.98,4.79511392 1.734,4.36911392 C1.493,3.94311392 1.374,3.47711392 1.385,2.96411392 C1.385,2.46611392 1.508,1.99411392 1.749,1.55311392 C1.996,1.11211392 2.344,0.774113916 2.795,0.538113916 C3.247,0.302113916 3.704,0.179113916 4.164,0.169113916 L4.164,0.169113916 Z M0,8.57011392 L6.448,8.57011392 L6.448,24.7111139 L9.361,24.7111139 L7.694,28.3011139 L1.682,28.3011139 L1.682,12.1761139 L0,12.1761139 L0,8.57011392 Z"/>
</svg>
