<svg xmlns="http://www.w3.org/2000/svg" xmlns:xlink="http://www.w3.org/1999/xlink" width="116" height="29" viewBox="0 0 116 29">
  <defs>
    <polygon id="a" points="115.506 0 .001 0 .001 28.87 115.506 28.87 115.506 0"/>
  </defs>
  <g fill="none" fill-rule="evenodd">
    <mask id="b" fill="white">
      <use xlink:href="#a"/>
    </mask>
    <path fill="#AE1017" d="M100.3596,14.1446 L105.5716,14.1446 L105.5716,13.1696 L109.8536,13.1696 L109.8536,14.1446 L115.5056,14.1446 L114.1516,17.4526 L109.8536,17.4526 L109.8536,19.0276 L115.3976,19.0276 L114.0176,22.3666 L109.8536,22.3666 L109.8536,23.7466 L115.3976,23.7466 L114.0176,27.0386 L109.8536,27.0386 L109.8536,27.6076 L105.5716,28.8696 L105.5716,27.0386 L100.2676,27.0386 L100.2676,23.7466 L105.5716,23.7466 L105.5716,22.3666 L100.5086,22.3666 L100.5086,19.0276 L105.5716,19.0276 L105.5716,17.4526 L100.3596,17.4526 L100.3596,14.1446 Z M110.3976,8.6156 L115.4286,12.7186 L110.0636,12.7186 L107.8886,10.9436 L105.7556,12.8826 L100.4066,12.8826 L104.9096,8.7236 L101.4886,5.9276 L106.8326,5.9276 L107.4076,6.3946 L109.6426,4.3326 L105.2266,4.3326 L104.5966,5.3226 L100.2676,5.3226 L103.0326,0.4396 L107.0886,0.4396 L106.6686,1.2086 L114.6956,1.2086 L114.6956,4.5426 L110.3976,8.6156 Z M91.9896,0.4856 L95.7586,0.4856 L95.7586,24.3046 L96.5856,24.3046 L96.5856,1.7166 L99.9696,1.7166 L99.9696,24.4536 L96.6926,28.0136 L87.7376,28.0136 L87.7376,1.8246 L91.1476,1.8246 L91.1476,24.3046 L91.9896,24.3046 L91.9896,0.4856 Z M85.6786,7.5486 L74.1076,7.5486 L74.1076,10.1646 L77.9856,10.1646 L77.5646,12.0416 L74.1076,12.0416 L74.1076,23.1766 L77.2776,21.9766 L77.2776,14.6726 L81.9806,14.6726 L81.9806,22.8586 L85.1666,21.6736 L85.1666,12.0416 L81.3956,12.0416 L81.7706,10.1646 L84.4326,10.1646 L85.6786,7.5486 Z M81.2786,15.6016 L81.2786,21.9146 L85.2736,28.3156 L81.5596,28.3156 L79.7296,25.3566 L77.8516,28.3156 L74.0356,28.3156 L77.9856,22.2436 L77.9856,15.6016 L81.2786,15.6016 Z M62.8706,13.5286 L62.8706,14.5346 L68.6866,14.5346 L67.7676,16.4326 L62.8706,16.4326 L62.8706,17.4936 L68.6866,17.4936 L67.7676,19.3456 L62.8706,19.3456 L62.8706,20.4736 L68.6866,20.4736 L67.7676,22.3046 L62.8706,22.3046 L62.8706,23.4336 L68.8656,23.4336 L68.8656,13.5286 L62.8706,13.5286 Z M71.1176,25.6276 L73.3286,28.3156 L69.2706,28.3156 L67.0606,25.6276 L64.4446,25.6276 L62.2396,28.3156 L58.1976,28.3156 L60.3876,25.6276 L58.4796,25.6276 L58.4796,23.4336 L59.1566,23.4336 L59.1566,11.3336 L64.0546,11.3336 L64.0546,10.2416 L58.6486,10.2416 L58.6486,8.0306 L64.0546,8.0306 L64.0546,7.2766 L67.7676,7.2766 L67.7676,8.0306 L73.3896,8.0306 L72.2306,10.2416 L67.7676,10.2416 L67.7676,11.3336 L72.5436,11.3336 L72.5436,23.4336 L73.6406,23.4336 L72.5436,25.6276 L71.1176,25.6276 Z M63.3056,3.4146 L69.6606,3.4146 L69.6606,0.1726 L74.1846,0.1726 L74.1846,3.4146 L80.7346,3.4146 L80.7346,0.6496 L85.1666,0.6496 L85.1666,3.3576 L81.2016,6.6616 L58.7976,6.6616 L58.7976,0.8446 L63.3056,0.8446 L63.3056,3.4146 Z M36.6796,0.5936 L31.9146,0.5936 L28.7456,10.7946 L30.6226,10.7946 L30.6376,28.8696 L35.2536,26.7976 L35.2536,5.5636 L36.6796,0.5936 Z M41.6086,17.9916 L41.6086,20.2486 L50.0816,20.2486 L48.9276,22.7096 L41.6086,22.7096 L41.6086,25.0536 L50.8666,25.0536 L50.8666,9.2926 L41.6086,9.2926 L41.6086,11.2466 L50.2046,11.2466 L49.0916,13.6626 L41.6086,13.6626 L41.6086,15.6316 L50.1586,15.6316 L49.0466,17.9916 L41.6086,17.9916 Z M56.5446,1.7166 L55.1596,4.8306 L48.3386,4.8306 L48.3386,6.3176 L55.4006,6.3176 L55.4006,25.0536 L57.1906,25.0536 L55.7646,28.0596 L35.9246,28.0596 L35.9246,25.0536 L37.0536,25.0536 L37.0536,6.3176 L43.6496,6.3176 L43.6496,4.8306 L36.5146,4.8306 L36.5146,1.7166 L43.6496,1.7166 L43.6496,0.4396 L48.3386,0.4396 L48.3386,1.7166 L56.5446,1.7166 Z M23.7116,21.2376 L23.7116,10.5076 L18.3156,10.5076 L18.3156,20.4736 L14.5616,22.1716 L14.5616,7.0516 L18.7206,7.0516 L19.2036,4.2456 L14.6486,4.2456 L14.6486,0.7116 L28.0406,0.7116 L26.5526,4.2456 L23.7116,4.2456 L23.2596,7.0516 L27.4706,7.0516 L27.4706,19.7046 L23.8036,21.4016 L27.5576,28.1516 L23.1826,28.1516 L21.0956,24.4076 L19.0236,28.1516 L14.4386,28.1516 L19.0236,20.2636 L19.0236,12.5546 L22.9166,12.5546 L22.9166,19.8276 L23.7116,21.2376 Z M4.1746,28.3936 L12.2896,27.1156 L13.1456,23.5046 L4.1746,24.9046 L4.1746,28.3936 Z M4.4006,22.7566 L12.4426,21.5246 L13.2996,17.8886 L4.4006,19.3146 L4.4006,22.7566 Z M4.3436,17.4836 L12.3666,16.1136 L13.2996,12.4776 L4.3436,13.9036 L4.3436,17.4836 Z M14.1406,1.7016 L12.9816,5.2356 L0.0006,5.2356 L0.0006,1.7016 L4.6576,1.7016 C4.8876,1.2246 5.1496,0.8296 5.4476,0.5166 C5.7446,0.2036 6.2266,0.0346 6.9036,0.0036 C7.5806,-0.0224 8.1146,0.0806 8.5136,0.3116 C8.9096,0.5476 9.1256,0.7116 9.1656,0.8036 L9.6316,1.7016 L14.1406,1.7016 Z M0.3176,8.1796 L2.2416,8.1796 L1.8776,6.0766 L5.3656,6.0766 L5.7236,8.1796 L9.1196,8.1796 L9.5246,6.0766 L12.8476,6.0766 L12.4426,8.1796 L14.1096,8.1796 L12.9356,11.7126 L3.6986,11.7126 L3.6986,26.2696 L0.3026,28.5876 L0.3176,8.1796 Z" mask="url(#b)"/>
  </g>
</svg>
