<svg xmlns="http://www.w3.org/2000/svg" xmlns:xlink="http://www.w3.org/1999/xlink" width="58" height="29" viewBox="0 0 58 29">
  <defs>
    <polygon id="a" points="0 28.579 57.323 28.579 57.323 0 0 0"/>
  </defs>
  <g fill="none" fill-rule="evenodd">
    <mask id="b" fill="white">
      <use xlink:href="#a"/>
    </mask>
    <path fill="#AE1017" d="M36.0791,9.15 L28.8521,9.15 L28.8521,12.699 L31.2841,12.699 L31.3301,28.579 L35.9261,26.84 L38.1361,27.963 L55.7191,27.963 L57.3231,24.568 L40.0591,24.537 L36.0791,22.614 L36.0791,9.15 Z M32.6691,0.421 C33.1361,0.431 33.6121,0.559 34.0951,0.81 C34.5761,1.062 34.9461,1.421 35.1971,1.887 C35.4531,2.354 35.5871,2.852 35.5871,3.38 C35.5921,3.913 35.4751,4.4 35.2231,4.837 C34.9611,5.298 34.6021,5.663 34.1411,5.919 C33.6791,6.18 33.1861,6.314 32.6691,6.314 C32.1361,6.324 31.6421,6.196 31.1861,5.929 C30.7291,5.663 30.3711,5.303 30.1041,4.847 C29.8371,4.39 29.7141,3.898 29.7241,3.364 C29.7241,2.857 29.8521,2.364 30.1191,1.892 C30.3861,1.421 30.7561,1.062 31.2321,0.805 C31.7101,0.549 32.1861,0.421 32.6691,0.421 L32.6691,0.421 Z M44.1781,2.749 L45.1111,0.133 L50.3841,0.133 L49.4661,2.749 L57.0421,2.749 L55.4621,6.237 L48.2351,6.237 L47.4551,8.447 L50.2761,8.447 L56.8011,22.147 L51.5221,22.147 L46.4141,11.345 L42.6141,22.106 L37.3411,22.106 L42.9631,6.237 L37.1921,6.237 L37.1921,2.749 L44.1781,2.749 Z M2.9291,0 C3.3801,0.01 3.8261,0.133 4.2671,0.369 C4.7081,0.605 5.0581,0.949 5.3131,1.4 C5.5701,1.846 5.6981,2.318 5.7031,2.811 C5.7091,3.303 5.5851,3.759 5.3341,4.191 C5.0831,4.631 4.7441,4.975 4.3131,5.221 C3.8831,5.467 3.4211,5.59 2.9291,5.59 C2.4211,5.601 1.9491,5.478 1.5181,5.232 C1.0881,4.98 0.7491,4.637 0.4971,4.201 C0.2461,3.765 0.1231,3.298 0.1341,2.795 C0.1341,2.323 0.2621,1.862 0.5181,1.405 C0.7741,0.949 1.1181,0.6 1.5551,0.359 C1.9901,0.118 2.4521,0 2.9291,0 L2.9291,0 Z M5.6061,22.737 L5.6061,7.421 L0.0001,7.421 L0.0001,11.227 L0.8881,11.227 L0.8881,28.369 L5.1851,26.625 L7.3491,27.994 L25.6961,27.994 L27.1061,24.942 L9.6941,24.942 L5.6061,22.737 Z M11.5101,10.986 L14.6081,10.986 L14.6081,9.227 L11.5101,9.227 L11.5101,10.986 Z M11.5101,15.72 L14.6081,15.72 L14.6081,14.022 L11.5101,14.022 L11.5101,15.72 Z M26.7781,2.944 L24.1931,6.145 L26.7781,6.145 L26.7781,19.803 L22.2551,23.353 L20.2691,23.353 L20.2691,20.224 L22.2551,20.224 L22.2551,9.227 L19.1721,9.227 L19.1721,10.986 L21.9361,10.986 L20.6601,14.023 L19.1721,14.023 L19.1721,15.72 L21.8811,15.72 L20.6031,18.752 L19.1721,18.752 L19.1721,22.193 L14.6071,23.65 L14.6071,18.752 L11.5101,18.752 L11.5101,21.88 L6.9711,23.353 L6.9711,6.145 L9.8271,6.145 L8.6831,4.298 L13.8221,4.283 L15.0741,6.145 L18.9461,6.145 L20.9621,3.59 L6.9711,3.59 L6.9711,0.528 L26.7781,0.528 L26.7781,2.944 Z" mask="url(#b)"/>
  </g>
</svg>
