<svg xmlns="http://www.w3.org/2000/svg" width="58" height="29" viewBox="0 0 58 29">
  <path fill="#AE1017" fill-rule="evenodd" d="M35.2484,25.5123 L38.0134,25.5123 L38.0134,16.3723 L33.0424,16.3723 L33.0424,17.6503 L37.6234,17.6503 L36.4224,20.5523 L33.0424,20.5523 L33.0424,21.7523 L37.6234,21.7523 L36.4694,24.5643 L33.0424,24.5643 L33.0424,26.6513 L29.1814,28.4253 L29.1814,13.5363 L41.9674,13.5363 L41.9674,25.5123 L38.6024,28.2923 L35.2484,28.2923 L35.2484,25.5123 Z M33.0834,8.6383 L29.0114,8.6383 L29.0114,5.7193 L33.0834,5.7193 L33.0834,4.3253 L29.1814,4.3253 L29.1814,1.4513 L33.0834,1.4513 L33.0834,0.3853 L37.3514,0.3853 L37.3514,1.4513 L42.0544,1.4513 L40.8544,4.3253 L37.3514,4.3253 L37.3514,5.7193 L42.2244,5.7193 L41.0494,8.6383 L37.3514,8.6383 L37.3514,9.7203 L42.2654,9.7203 L41.0494,12.6033 L28.5914,12.6033 L28.5914,9.7203 L33.0834,9.7203 L33.0834,8.6383 Z M51.0154,13.0843 L52.1694,13.0843 L52.1694,10.3053 L51.0154,10.3053 L51.0154,13.0843 Z M51.0154,18.7063 L52.1694,18.7063 L52.1694,16.2383 L51.0154,16.2383 L51.0154,18.7063 Z M42.7474,10.3663 L42.7474,7.1653 L50.1684,7.1653 L51.8564,4.5033 L47.4504,4.4893 L46.8654,5.8733 L42.5674,5.8733 L44.8804,0.0413 L49.0614,0.0413 L48.6404,1.1963 L56.6314,1.1963 L56.6314,3.9763 L54.6924,7.1653 L56.1954,7.1653 L56.1954,13.0843 L57.9544,13.0843 L56.9034,16.2703 L56.3034,16.2393 L56.3034,18.0853 L52.6824,21.7993 L51.0154,21.7993 L51.0154,24.6713 L47.0294,28.2773 L44.4914,28.2773 L44.4914,25.1223 L46.9984,25.1223 L46.9984,21.7993 L42.8084,21.7993 L42.8084,18.7063 L46.9984,18.7063 L46.9984,16.2393 L42.5674,16.2393 L42.5674,13.0843 L46.9984,13.0843 L46.9984,10.3663 L42.7474,10.3663 Z M0.3434,9.1003 L0.3434,1.9043 L10.6064,1.8883 C10.7964,1.4983 10.9964,1.1913 11.2024,0.9753 C11.4074,0.7543 11.9154,0.4983 12.7204,0.2053 C13.5254,-0.0867 14.3304,-0.0657 15.1304,0.2573 C15.9304,0.5853 16.3874,0.8573 16.5004,1.0773 L16.9464,1.8883 L27.4194,1.9043 L27.4194,7.1763 L22.3884,8.6943 L22.3884,5.0173 L5.3954,5.0173 L5.3954,7.1353 L0.3434,9.1003 Z M-0.0006,10.7863 L27.7374,10.7863 L26.0094,14.3463 L23.5474,14.3463 L23.5324,24.3993 L18.7054,28.2003 L9.2834,28.2153 L9.2834,24.5483 L18.4954,24.5643 L18.4794,14.3463 L-0.0006,14.3463 L-0.0006,10.7863 Z"/>
</svg>
