<svg xmlns="http://www.w3.org/2000/svg" width="57" height="28" viewBox="0 0 57 28">
  <path fill="#AE1017" fill-rule="evenodd" d="M22.342,-0.0002 L19.126,10.4168 L24.405,10.4168 L27.621,-0.0002 L22.342,-0.0002 Z M9.027,0.2108 L12.258,10.6118 L17.536,10.6118 L14.305,0.2108 L9.027,0.2108 Z M0.36,0.2108 L3.575,10.6118 L8.847,10.6118 L5.632,0.2108 L0.36,0.2108 Z M42.085,0.3018 L42.085,3.7128 L46.43,3.7128 L46.43,12.2788 L42.085,12.2788 L42.085,15.7768 L46.43,15.7768 L46.43,24.1328 L42.21,24.1328 L42.21,27.5328 L55.098,27.5328 L56.631,24.1328 L51.195,24.1328 L51.195,15.7768 L55.098,15.7768 L56.631,12.2788 L51.195,12.2788 L51.195,3.7128 L54.863,3.7128 L56.437,0.3018 L42.085,0.3018 Z M29.781,0.3018 L29.781,27.7118 L36.572,27.7428 L41.352,24.1938 L41.352,1.7898 L41.337,1.7898 L41.337,0.3018 L29.781,0.3018 Z M34.346,12.3088 L36.782,12.3088 L36.782,3.6818 L34.346,3.6818 L34.346,12.3088 Z M34.346,24.3268 L36.782,24.3268 L36.782,15.6738 L34.346,15.6738 L34.346,24.3268 Z M0,12.2948 L0,16.0028 L26.328,16.0028 L28.041,12.2948 L0,12.2948 Z M18.423,17.7618 L21.532,27.7838 L26.805,27.7838 L23.697,17.7618 L18.423,17.7618 Z M3.636,17.7618 L0.554,27.7838 L5.842,27.7838 L8.91,17.7618 L3.636,17.7618 Z"/>
</svg>
