<svg xmlns="http://www.w3.org/2000/svg" width="57" height="29" viewBox="0 0 57 29">
  <path fill="#AE1017" fill-rule="evenodd" d="M34.8434,23.3836 L34.8434,24.7526 L50.0514,24.7686 L50.0354,19.6126 L34.8434,19.6126 L34.8434,20.8746 L49.0764,20.8746 L47.8554,23.3836 L34.8434,23.3836 Z M55.0874,16.7106 L55.0724,24.1066 L49.9894,27.7116 L29.7964,27.7116 L29.7964,16.7106 L55.0874,16.7106 Z M42.5674,12.2636 L36.1514,15.8076 L28.8064,15.8076 L35.7924,11.9606 L29.3144,11.9606 L29.3144,8.9556 L35.3564,8.9556 L35.3254,8.9556 L40.0904,8.9556 L40.0904,7.9816 L29.3144,7.9816 L29.3144,5.0216 L40.0904,5.0216 L40.0904,4.0876 L29.3914,4.0876 L29.3914,1.1286 L40.0904,1.1286 L40.0904,-0.0004 L45.1214,-0.0004 L45.1214,1.1286 L56.0154,1.1286 L54.5904,4.0876 L45.1214,4.0876 L45.1214,5.0216 L56.0154,5.0216 L54.5904,7.9816 L45.1214,7.9816 L45.1214,8.9556 L49.3434,8.9556 L49.3274,8.9556 L56.0154,8.9556 L54.5904,11.9606 L49.2864,11.9606 L56.7544,15.8076 L49.3014,15.8076 L42.5674,12.2636 Z M11.0114,1.0976 L11.0114,0.0766 L15.7774,0.0766 L15.7774,1.0976 L26.8654,1.0976 L25.4404,3.9856 L15.7774,3.9856 L15.7774,5.0826 L26.8654,5.0826 L25.4404,8.0726 L15.7774,8.0726 L15.7774,9.2116 L27.5894,9.2116 L26.1734,12.2016 L0.0004,12.2016 L0.0004,9.2116 L11.0114,9.2116 L11.0114,8.0726 L0.3434,8.0726 L0.3434,5.0826 L11.0114,5.0826 L11.0114,3.9856 L0.3434,3.9856 L0.3434,1.0976 L11.0114,1.0976 Z M21.6804,27.7996 L14.2434,27.8296 L14.2434,25.3376 L21.6654,25.3376 C21.6854,21.5526 21.6904,18.9466 21.6804,17.5216 L21.6654,15.7366 L5.3194,15.7366 L5.3194,17.5056 L21.2604,17.5056 L20.3624,19.8086 L5.3194,19.8086 L5.3194,21.7006 L21.2604,21.7006 L20.2544,24.1626 L5.3194,24.1626 L5.3194,26.4766 L4.5244,26.8246 L4.5244,26.8396 L0.5844,28.5696 L0.5534,13.2126 L0.5844,13.2126 L26.4454,13.2126 L26.4454,25.2296 L21.6804,27.7996 Z"/>
</svg>
