<svg xmlns="http://www.w3.org/2000/svg" xmlns:xlink="http://www.w3.org/1999/xlink" width="116" height="29" viewBox="0 0 116 29">
  <defs>
    <polygon id="a" points="0 28.23 115.685 28.23 115.685 0 0 0"/>
  </defs>
  <g fill="none" fill-rule="evenodd">
    <mask id="b" fill="white">
      <use xlink:href="#a"/>
    </mask>
    <path fill="#AE1017" d="M101.262,17.6695 L92.984,27.8245 L86.747,27.8245 L97.939,14.0645 L87.783,14.0645 L87.783,10.5605 L98.529,10.5605 L98.529,3.8155 L87.634,3.8155 L87.634,0.2975 L115.505,0.2975 L113.838,3.8155 L103.621,3.8155 L103.621,10.5605 L115.418,10.5605 L113.792,14.0645 L104.581,14.0645 L115.685,27.8245 L109.449,27.8245 L101.262,17.6695 Z M61.787,0.9585 C62.322,0.9585 62.839,1.0975 63.352,1.3745 C63.86,1.6465 64.265,2.0465 64.563,2.5695 C64.855,3.0875 65.003,3.6315 65.009,4.1955 C65.014,4.7655 64.875,5.2985 64.583,5.7955 C64.29,6.2985 63.896,6.6935 63.398,6.9855 C62.896,7.2735 62.357,7.4165 61.787,7.4065 C61.208,7.4065 60.669,7.2625 60.172,6.9755 C59.674,6.6935 59.284,6.2985 58.992,5.7955 C58.705,5.2985 58.562,4.7595 58.572,4.1905 C58.572,3.6315 58.721,3.0875 59.018,2.5695 C59.311,2.0465 59.71,1.6515 60.218,1.3795 C60.726,1.1075 61.249,0.9695 61.787,0.9585 L61.787,0.9585 Z M57.972,27.4195 L60.854,12.1095 L65.618,12.1095 L62.659,27.4195 L57.972,27.4195 Z M78.046,20.7365 L81.052,20.7365 L81.052,6.8065 L78.046,6.7905 L78.046,20.7365 Z M73.523,6.8065 L70.353,6.8065 L70.368,20.7365 L73.523,20.7365 L73.523,6.8065 Z M73.523,3.1395 L73.523,-0.0005 L78.046,-0.0005 L78.046,3.1395 L85.622,3.1395 L85.622,20.3875 L81.201,24.3835 L78.046,24.3835 L78.046,26.2505 L73.523,28.2305 L73.523,24.3835 L65.875,24.3985 L65.875,3.1395 L73.523,3.1395 Z M56.56,20.9005 L48.701,12.6325 L41.655,12.6325 L49.512,20.9005 L56.56,20.9005 Z M57.221,0.7485 L50.728,0.7485 L40.423,9.6885 L47.799,9.6735 L57.221,0.7485 Z M42.495,0.1335 L36.125,24.2805 L56.467,24.2805 L54.488,27.7525 L30.145,27.7375 L36.5,3.7385 L29.227,3.7235 L29.227,0.1335 L42.495,0.1335 Z M0,11.5655 L27.922,11.5655 L26.132,15.4425 L0,15.4425 L0,11.5655 Z" mask="url(#b)"/>
  </g>
</svg>
